<svg xmlns="http://www.w3.org/2000/svg" viewBox="0 0 515.33 516.33"><g id="Layer_2" data-name="Layer 2"><g id="Outline"><path fill="currentcolor" d="M451.33,345.67H494a21.33,21.33,0,1,1,0,42.66H451.33a64,64,0,0,0-64,64V495a21.33,21.33,0,1,1-42.66,0V452.33A106.78,106.78,0,0,1,451.33,345.67Z"/><path fill="currentcolor" d="M149.33,0a21.33,21.33,0,0,1,21.34,21.33V64A106.8,106.8,0,0,1,64,170.67H21.33a21.34,21.34,0,0,1,0-42.67H64a64,64,0,0,0,64-64V21.33A21.33,21.33,0,0,1,149.33,0Z"/><path fill="currentcolor" d="M21.33,345.67H64A106.79,106.79,0,0,1,170.67,452.33V495A21.34,21.34,0,0,1,128,495V452.33a64,64,0,0,0-64-64H21.33a21.33,21.33,0,1,1,0-42.66Z"/><path fill="currentcolor" d="M366,0a21.33,21.33,0,0,1,21.33,21.33V64a64,64,0,0,0,64,64H494a21.34,21.34,0,0,1,0,42.67H451.33A106.79,106.79,0,0,1,344.67,64V21.33A21.33,21.33,0,0,1,366,0Z"/></g></g></svg>