<svg xmlns="http://www.w3.org/2000/svg" viewBox="0 0 512 426.66"><g id="Layer_2" data-name="Layer 2"><g id="Layer_1-2" data-name="Layer 1"><path fill="currentcolor" d="M394.67,0H117.33A117.47,117.47,0,0,0,0,117.33v192A117.47,117.47,0,0,0,117.33,426.66H394.67A117.47,117.47,0,0,0,512,309.33v-192A117.47,117.47,0,0,0,394.67,0ZM96,336.55a32,32,0,1,1,32-32A32,32,0,0,1,96,336.55Zm0-102.7a32,32,0,1,1,32-32A32,32,0,0,1,96,233.85Zm0-106.66a32,32,0,1,1,32-32A32,32,0,0,1,96,127.19ZM448,309.33a53.39,53.39,0,0,1-53.33,53.33H192V64H394.67A53.39,53.39,0,0,1,448,117.33Z"/></g></g></svg>