<svg xmlns="http://www.w3.org/2000/svg" xmlns:xlink="http://www.w3.org/1999/xlink" viewBox="0 0 484 256.37"><g id="Layer_2" data-name="Layer 2"><g id="Layer_1-2" data-name="Layer 1"><path fill="currentcolor" class="cls-1" d="M72.35,118.36c51.16-32.18,75.49-1.34,96.82,39.21q-26.49,48.23-35,58.85c-10.76,13.37-22.49,23.49-36.93,29.33C66.86,260,29.13,260.68,0,243.05Z"/><path fill="currentcolor" class="cls-2" d="M430.31,101.73c-46.27-81-94.1-157.23-149-45.35-7.52,14.39-13,42.34-25.27,42.34v-.14c-12.27,0-17.75-28-25.26-42.34-55-111.88-102.78-35.61-149,45.34-3.48,6.11-6.83,11.94-9.69,17,106-67.13,97.11,135.67,184,137.28V256c86.89-1.61,78-204.41,184-137.28C437.14,113.66,433.79,107.83,430.31,101.73Z"/><path fill="currentcolor" class="cls-3" d="M436,256a48,48,0,1,0-48-48A48,48,0,0,0,436,256Z"/></g></g></svg>